<?xml version="1.0" encoding="utf-8"?>
<!-- Generator: Adobe Illustrator 23.0.1, SVG Export Plug-In . SVG Version: 6.00 Build 0)  -->
<svg version="1.1" id="facebook" xmlns="http://www.w3.org/2000/svg" xmlns:xlink="http://www.w3.org/1999/xlink" x="0px" y="0px"
	 viewBox="0 0 64 64" style="enable-background:new 0 0 64 64;" xml:space="preserve">
<style type="text/css">
	.st0{fill:#FFFFFF;}
</style>
<path class="st0" d="M60.47,0H3.53C1.58,0,0,1.58,0,3.53v56.94C0,62.42,1.58,64,3.53,64h30.65V39.22h-8.34v-9.66h8.34v-7.12
	c0-8.27,5.05-12.77,12.42-12.77c3.53,0,6.57,0.26,7.45,0.38v8.64l-5.11,0c-4.01,0-4.79,1.91-4.79,4.7v6.17h9.56l-1.25,9.66h-8.32V64
	h16.31c1.95,0,3.53-1.58,3.53-3.53V3.53C64,1.58,62.42,0,60.47,0z"/>
</svg>
